<svg width="32" height="32" viewBox="0 0 32 32" fill="none" xmlns="http://www.w3.org/2000/svg">
  <rect width="32" height="32" rx="4" fill="#C8D6C2"/>
  <path d="M8 8H24V24H8V8Z" fill="#C8D6C2"/>
  <path d="M16 6C10.48 6 6 10.48 6 16C6 21.52 10.48 26 16 26C21.52 26 26 21.52 26 16C26 10.48 21.52 6 16 6ZM16 24C11.59 24 8 20.41 8 16C8 11.59 11.59 8 16 8C20.41 8 24 11.59 24 16C24 20.41 20.41 24 16 24Z" fill="#1A1A1A"/>
  <path d="M16 10C13.79 10 12 11.79 12 14C12 15.86 13.27 17.41 15 17.86V22H17V17.86C18.73 17.41 20 15.86 20 14C20 11.79 18.21 10 16 10ZM16 16C14.9 16 14 15.1 14 14C14 12.9 14.9 12 16 12C17.1 12 18 12.9 18 14C18 15.1 17.1 16 16 16Z" fill="#1A1A1A"/>
</svg>